<svg id="visual" viewBox="0 0 1280 80" width="1280" height="80" xmlns="http://www.w3.org/2000/svg" xmlns:xlink="http://www.w3.org/1999/xlink" version="1.1"><path d="M924 0L911.2 6.7C898.3 13.3 872.7 26.7 863.7 40C854.7 53.3 862.3 66.7 866.2 73.3L870 80L0 80L0 73.3C0 66.7 0 53.3 0 40C0 26.7 0 13.3 0 6.7L0 0Z" fill="#fd8c69"></path><path d="M807 0L809.7 6.7C812.3 13.3 817.7 26.7 828.3 40C839 53.3 855 66.7 863 73.3L871 80L0 80L0 73.3C0 66.7 0 53.3 0 40C0 26.7 0 13.3 0 6.7L0 0Z" fill="#f68266"></path><path d="M722 0L723 6.7C724 13.3 726 26.7 731.3 40C736.7 53.3 745.3 66.7 749.7 73.3L754 80L0 80L0 73.3C0 66.7 0 53.3 0 40C0 26.7 0 13.3 0 6.7L0 0Z" fill="#f07964"></path><path d="M715 0L718.5 6.7C722 13.3 729 26.7 714 40C699 53.3 662 66.7 643.5 73.3L625 80L0 80L0 73.3C0 66.7 0 53.3 0 40C0 26.7 0 13.3 0 6.7L0 0Z" fill="#e96f62"></path><path d="M626 0L613.8 6.7C601.7 13.3 577.3 26.7 579.5 40C581.7 53.3 610.3 66.7 624.7 73.3L639 80L0 80L0 73.3C0 66.7 0 53.3 0 40C0 26.7 0 13.3 0 6.7L0 0Z" fill="#e16660"></path><path d="M587 0L576 6.7C565 13.3 543 26.7 527.7 40C512.3 53.3 503.7 66.7 499.3 73.3L495 80L0 80L0 73.3C0 66.7 0 53.3 0 40C0 26.7 0 13.3 0 6.7L0 0Z" fill="#da5d5e"></path><path d="M455 0L448.3 6.7C441.7 13.3 428.3 26.7 431 40C433.7 53.3 452.3 66.7 461.7 73.3L471 80L0 80L0 73.3C0 66.7 0 53.3 0 40C0 26.7 0 13.3 0 6.7L0 0Z" fill="#d2535c"></path><path d="M341 0L350.8 6.7C360.7 13.3 380.3 26.7 380 40C379.7 53.3 359.3 66.7 349.2 73.3L339 80L0 80L0 73.3C0 66.7 0 53.3 0 40C0 26.7 0 13.3 0 6.7L0 0Z" fill="#ca4a5a"></path><path d="M308 0L314 6.7C320 13.3 332 26.7 332.5 40C333 53.3 322 66.7 316.5 73.3L311 80L0 80L0 73.3C0 66.7 0 53.3 0 40C0 26.7 0 13.3 0 6.7L0 0Z" fill="#c24159"></path><path d="M280 0L279 6.7C278 13.3 276 26.7 261.2 40C246.3 53.3 218.7 66.7 204.8 73.3L191 80L0 80L0 73.3C0 66.7 0 53.3 0 40C0 26.7 0 13.3 0 6.7L0 0Z" fill="#ba3857"></path><path d="M190 0L190.2 6.7C190.3 13.3 190.7 26.7 186.8 40C183 53.3 175 66.7 171 73.3L167 80L0 80L0 73.3C0 66.7 0 53.3 0 40C0 26.7 0 13.3 0 6.7L0 0Z" fill="#b12f56"></path><path d="M94 0L87.3 6.7C80.7 13.3 67.3 26.7 71.7 40C76 53.3 98 66.7 109 73.3L120 80L0 80L0 73.3C0 66.7 0 53.3 0 40C0 26.7 0 13.3 0 6.7L0 0Z" fill="#a82654"></path></svg>