<svg id="visual" viewBox="0 0 1500 30" width="1500" height="30" xmlns="http://www.w3.org/2000/svg" xmlns:xlink="http://www.w3.org/1999/xlink" version="1.1"><path d="M1209 0L1200.8 2.5C1192.7 5 1176.3 10 1198.8 15C1221.3 20 1282.7 25 1313.3 27.5L1344 30L0 30L0 27.5C0 25 0 20 0 15C0 10 0 5 0 2.5L0 0Z" fill="#fd8c69"></path><path d="M973 0L985 2.5C997 5 1021 10 1025.3 15C1029.7 20 1014.3 25 1006.7 27.5L999 30L0 30L0 27.5C0 25 0 20 0 15C0 10 0 5 0 2.5L0 0Z" fill="#f58066"></path><path d="M971 0L967.7 2.5C964.3 5 957.7 10 952.3 15C947 20 943 25 941 27.5L939 30L0 30L0 27.5C0 25 0 20 0 15C0 10 0 5 0 2.5L0 0Z" fill="#ed7563"></path><path d="M760 0L793.7 2.5C827.3 5 894.7 10 916.3 15C938 20 914 25 902 27.5L890 30L0 30L0 27.5C0 25 0 20 0 15C0 10 0 5 0 2.5L0 0Z" fill="#e46960"></path><path d="M716 0L740.2 2.5C764.3 5 812.7 10 838.7 15C864.7 20 868.3 25 870.2 27.5L872 30L0 30L0 27.5C0 25 0 20 0 15C0 10 0 5 0 2.5L0 0Z" fill="#db5e5e"></path><path d="M515 0L530.8 2.5C546.7 5 578.3 10 579.2 15C580 20 550 25 535 27.5L520 30L0 30L0 27.5C0 25 0 20 0 15C0 10 0 5 0 2.5L0 0Z" fill="#d1525c"></path><path d="M521 0L526.3 2.5C531.7 5 542.3 10 523.2 15C504 20 455 25 430.5 27.5L406 30L0 30L0 27.5C0 25 0 20 0 15C0 10 0 5 0 2.5L0 0Z" fill="#c7475a"></path><path d="M366 0L372.3 2.5C378.7 5 391.3 10 386.5 15C381.7 20 359.3 25 348.2 27.5L337 30L0 30L0 27.5C0 25 0 20 0 15C0 10 0 5 0 2.5L0 0Z" fill="#bd3c58"></path><path d="M216 0L214 2.5C212 5 208 10 221.3 15C234.7 20 265.3 25 280.7 27.5L296 30L0 30L0 27.5C0 25 0 20 0 15C0 10 0 5 0 2.5L0 0Z" fill="#b33156"></path><path d="M71 0L70.2 2.5C69.3 5 67.7 10 74.2 15C80.7 20 95.3 25 102.7 27.5L110 30L0 30L0 27.5C0 25 0 20 0 15C0 10 0 5 0 2.5L0 0Z" fill="#a82654"></path></svg>