<svg id="visual" viewBox="0 0 1500 30" width="1500" height="30" xmlns="http://www.w3.org/2000/svg" xmlns:xlink="http://www.w3.org/1999/xlink" version="1.1"><path d="M1306 0L1301.8 2.5C1297.7 5 1289.3 10 1283.2 15C1277 20 1273 25 1271 27.5L1269 30L0 30L0 27.5C0 25 0 20 0 15C0 10 0 5 0 2.5L0 0Z" fill="#fd8c69"></path><path d="M1088 0L1074.3 2.5C1060.7 5 1033.3 10 1055.3 15C1077.3 20 1148.7 25 1184.3 27.5L1220 30L0 30L0 27.5C0 25 0 20 0 15C0 10 0 5 0 2.5L0 0Z" fill="#f58066"></path><path d="M958 0L951.2 2.5C944.3 5 930.7 10 927.8 15C925 20 933 25 937 27.5L941 30L0 30L0 27.5C0 25 0 20 0 15C0 10 0 5 0 2.5L0 0Z" fill="#ed7563"></path><path d="M827 0L813 2.5C799 5 771 10 778 15C785 20 827 25 848 27.5L869 30L0 30L0 27.5C0 25 0 20 0 15C0 10 0 5 0 2.5L0 0Z" fill="#e46960"></path><path d="M751 0L771.3 2.5C791.7 5 832.3 10 821 15C809.7 20 746.3 25 714.7 27.5L683 30L0 30L0 27.5C0 25 0 20 0 15C0 10 0 5 0 2.5L0 0Z" fill="#db5e5e"></path><path d="M572 0L577.2 2.5C582.3 5 592.7 10 606.3 15C620 20 637 25 645.5 27.5L654 30L0 30L0 27.5C0 25 0 20 0 15C0 10 0 5 0 2.5L0 0Z" fill="#d1525c"></path><path d="M419 0L422.7 2.5C426.3 5 433.7 10 438.3 15C443 20 445 25 446 27.5L447 30L0 30L0 27.5C0 25 0 20 0 15C0 10 0 5 0 2.5L0 0Z" fill="#c7475a"></path><path d="M386 0L386.3 2.5C386.7 5 387.3 10 372.7 15C358 20 328 25 313 27.5L298 30L0 30L0 27.5C0 25 0 20 0 15C0 10 0 5 0 2.5L0 0Z" fill="#bd3c58"></path><path d="M337 0L329.5 2.5C322 5 307 10 297.2 15C287.3 20 282.7 25 280.3 27.5L278 30L0 30L0 27.5C0 25 0 20 0 15C0 10 0 5 0 2.5L0 0Z" fill="#b33156"></path><path d="M196 0L181 2.5C166 5 136 10 139.5 15C143 20 180 25 198.5 27.5L217 30L0 30L0 27.5C0 25 0 20 0 15C0 10 0 5 0 2.5L0 0Z" fill="#a82654"></path></svg>