<svg id="visual" viewBox="0 0 1200 80" width="1200" height="80" xmlns="http://www.w3.org/2000/svg" xmlns:xlink="http://www.w3.org/1999/xlink" version="1.1"><path d="M0 22L15.3 22C30.7 22 61.3 22 92.2 19.3C123 16.7 154 11.3 184.8 8.8C215.7 6.3 246.3 6.7 277 10.3C307.7 14 338.3 21 369.2 23C400 25 431 22 461.8 22.3C492.7 22.7 523.3 26.3 554 27C584.7 27.7 615.3 25.3 646 22.8C676.7 20.3 707.3 17.7 738.2 18.3C769 19 800 23 830.8 24.8C861.7 26.7 892.3 26.3 923 24C953.7 21.7 984.3 17.3 1015.2 16.5C1046 15.7 1077 18.3 1107.8 18.8C1138.7 19.3 1169.3 17.7 1184.7 16.8L1200 16L1200 81L1184.7 81C1169.3 81 1138.7 81 1107.8 81C1077 81 1046 81 1015.2 81C984.3 81 953.7 81 923 81C892.3 81 861.7 81 830.8 81C800 81 769 81 738.2 81C707.3 81 676.7 81 646 81C615.3 81 584.7 81 554 81C523.3 81 492.7 81 461.8 81C431 81 400 81 369.2 81C338.3 81 307.7 81 277 81C246.3 81 215.7 81 184.8 81C154 81 123 81 92.2 81C61.3 81 30.7 81 15.3 81L0 81Z" fill="#fd8c69"></path><path d="M0 31L15.3 29.7C30.7 28.3 61.3 25.7 92.2 27.3C123 29 154 35 184.8 34.3C215.7 33.7 246.3 26.3 277 25.7C307.7 25 338.3 31 369.2 34.5C400 38 431 39 461.8 38.8C492.7 38.7 523.3 37.3 554 34.5C584.7 31.7 615.3 27.3 646 27.8C676.7 28.3 707.3 33.7 738.2 36.3C769 39 800 39 830.8 39C861.7 39 892.3 39 923 37.5C953.7 36 984.3 33 1015.2 32.3C1046 31.7 1077 33.3 1107.8 33.2C1138.7 33 1169.3 31 1184.7 30L1200 29L1200 81L1184.7 81C1169.3 81 1138.7 81 1107.8 81C1077 81 1046 81 1015.2 81C984.3 81 953.7 81 923 81C892.3 81 861.7 81 830.8 81C800 81 769 81 738.2 81C707.3 81 676.7 81 646 81C615.3 81 584.7 81 554 81C523.3 81 492.7 81 461.8 81C431 81 400 81 369.2 81C338.3 81 307.7 81 277 81C246.3 81 215.7 81 184.8 81C154 81 123 81 92.2 81C61.3 81 30.7 81 15.3 81L0 81Z" fill="#ea7262"></path><path d="M0 48L15.3 46C30.7 44 61.3 40 92.2 39.5C123 39 154 42 184.8 42.5C215.7 43 246.3 41 277 39.2C307.7 37.3 338.3 35.7 369.2 37.5C400 39.3 431 44.7 461.8 46.3C492.7 48 523.3 46 554 46.2C584.7 46.3 615.3 48.7 646 47C676.7 45.3 707.3 39.7 738.2 36.3C769 33 800 32 830.8 33.5C861.7 35 892.3 39 923 39.5C953.7 40 984.3 37 1015.2 38.3C1046 39.7 1077 45.3 1107.8 45.2C1138.7 45 1169.3 39 1184.7 36L1200 33L1200 81L1184.7 81C1169.3 81 1138.7 81 1107.8 81C1077 81 1046 81 1015.2 81C984.3 81 953.7 81 923 81C892.3 81 861.7 81 830.8 81C800 81 769 81 738.2 81C707.3 81 676.7 81 646 81C615.3 81 584.7 81 554 81C523.3 81 492.7 81 461.8 81C431 81 400 81 369.2 81C338.3 81 307.7 81 277 81C246.3 81 215.7 81 184.8 81C154 81 123 81 92.2 81C61.3 81 30.7 81 15.3 81L0 81Z" fill="#d6585d"></path><path d="M0 59L15.3 58.5C30.7 58 61.3 57 92.2 56.5C123 56 154 56 184.8 55.3C215.7 54.7 246.3 53.3 277 53.8C307.7 54.3 338.3 56.7 369.2 56.5C400 56.3 431 53.7 461.8 51.5C492.7 49.3 523.3 47.7 554 48.5C584.7 49.3 615.3 52.7 646 53.8C676.7 55 707.3 54 738.2 53.3C769 52.7 800 52.3 830.8 51.3C861.7 50.3 892.3 48.7 923 49.2C953.7 49.7 984.3 52.3 1015.2 52.2C1046 52 1077 49 1107.8 50.3C1138.7 51.7 1169.3 57.3 1184.7 60.2L1200 63L1200 81L1184.7 81C1169.3 81 1138.7 81 1107.8 81C1077 81 1046 81 1015.2 81C984.3 81 953.7 81 923 81C892.3 81 861.7 81 830.8 81C800 81 769 81 738.2 81C707.3 81 676.7 81 646 81C615.3 81 584.7 81 554 81C523.3 81 492.7 81 461.8 81C431 81 400 81 369.2 81C338.3 81 307.7 81 277 81C246.3 81 215.7 81 184.8 81C154 81 123 81 92.2 81C61.3 81 30.7 81 15.3 81L0 81Z" fill="#c03f58"></path><path d="M0 69L15.3 68.5C30.7 68 61.3 67 92.2 66.7C123 66.3 154 66.7 184.8 66C215.7 65.3 246.3 63.7 277 62.3C307.7 61 338.3 60 369.2 60.7C400 61.3 431 63.7 461.8 63.7C492.7 63.7 523.3 61.3 554 60.2C584.7 59 615.3 59 646 61.2C676.7 63.3 707.3 67.7 738.2 67.5C769 67.3 800 62.7 830.8 62.3C861.7 62 892.3 66 923 68.7C953.7 71.3 984.3 72.7 1015.2 72.2C1046 71.7 1077 69.3 1107.8 67.2C1138.7 65 1169.3 63 1184.7 62L1200 61L1200 81L1184.7 81C1169.3 81 1138.7 81 1107.8 81C1077 81 1046 81 1015.2 81C984.3 81 953.7 81 923 81C892.3 81 861.7 81 830.8 81C800 81 769 81 738.2 81C707.3 81 676.7 81 646 81C615.3 81 584.7 81 554 81C523.3 81 492.7 81 461.8 81C431 81 400 81 369.2 81C338.3 81 307.7 81 277 81C246.3 81 215.7 81 184.8 81C154 81 123 81 92.2 81C61.3 81 30.7 81 15.3 81L0 81Z" fill="#a82654"></path></svg>