<svg id="visual" viewBox="0 0 1200 80" width="1200" height="80" xmlns="http://www.w3.org/2000/svg" xmlns:xlink="http://www.w3.org/1999/xlink" version="1.1"><path d="M0 10L15.3 12.5C30.7 15 61.3 20 92.2 22.2C123 24.3 154 23.7 184.8 20.7C215.7 17.7 246.3 12.3 277 9.8C307.7 7.3 338.3 7.7 369.2 7.8C400 8 431 8 461.8 10.5C492.7 13 523.3 18 554 21.7C584.7 25.3 615.3 27.7 646 29C676.7 30.3 707.3 30.7 738.2 30.8C769 31 800 31 830.8 30.2C861.7 29.3 892.3 27.7 923 25.3C953.7 23 984.3 20 1015.2 18.2C1046 16.3 1077 15.7 1107.8 16.3C1138.7 17 1169.3 19 1184.7 20L1200 21L1200 81L1184.7 81C1169.3 81 1138.7 81 1107.8 81C1077 81 1046 81 1015.2 81C984.3 81 953.7 81 923 81C892.3 81 861.7 81 830.8 81C800 81 769 81 738.2 81C707.3 81 676.7 81 646 81C615.3 81 584.7 81 554 81C523.3 81 492.7 81 461.8 81C431 81 400 81 369.2 81C338.3 81 307.7 81 277 81C246.3 81 215.7 81 184.8 81C154 81 123 81 92.2 81C61.3 81 30.7 81 15.3 81L0 81Z" fill="#fd8c69"></path><path d="M0 40L15.3 37.8C30.7 35.7 61.3 31.3 92.2 29.7C123 28 154 29 184.8 27.8C215.7 26.7 246.3 23.3 277 25.2C307.7 27 338.3 34 369.2 34.3C400 34.7 431 28.3 461.8 25.5C492.7 22.7 523.3 23.3 554 22.7C584.7 22 615.3 20 646 22.8C676.7 25.7 707.3 33.3 738.2 35.2C769 37 800 33 830.8 30C861.7 27 892.3 25 923 27C953.7 29 984.3 35 1015.2 36C1046 37 1077 33 1107.8 32.5C1138.7 32 1169.3 35 1184.7 36.5L1200 38L1200 81L1184.7 81C1169.3 81 1138.7 81 1107.8 81C1077 81 1046 81 1015.2 81C984.3 81 953.7 81 923 81C892.3 81 861.7 81 830.8 81C800 81 769 81 738.2 81C707.3 81 676.7 81 646 81C615.3 81 584.7 81 554 81C523.3 81 492.7 81 461.8 81C431 81 400 81 369.2 81C338.3 81 307.7 81 277 81C246.3 81 215.7 81 184.8 81C154 81 123 81 92.2 81C61.3 81 30.7 81 15.3 81L0 81Z" fill="#ea7262"></path><path d="M0 43L15.3 42.5C30.7 42 61.3 41 92.2 40.7C123 40.3 154 40.7 184.8 41.3C215.7 42 246.3 43 277 44.7C307.7 46.3 338.3 48.7 369.2 49.8C400 51 431 51 461.8 49C492.7 47 523.3 43 554 42.2C584.7 41.3 615.3 43.7 646 43.2C676.7 42.7 707.3 39.3 738.2 37.2C769 35 800 34 830.8 36.7C861.7 39.3 892.3 45.7 923 46.3C953.7 47 984.3 42 1015.2 39.7C1046 37.3 1077 37.7 1107.8 38.7C1138.7 39.7 1169.3 41.3 1184.7 42.2L1200 43L1200 81L1184.7 81C1169.3 81 1138.7 81 1107.8 81C1077 81 1046 81 1015.2 81C984.3 81 953.7 81 923 81C892.3 81 861.7 81 830.8 81C800 81 769 81 738.2 81C707.3 81 676.7 81 646 81C615.3 81 584.7 81 554 81C523.3 81 492.7 81 461.8 81C431 81 400 81 369.2 81C338.3 81 307.7 81 277 81C246.3 81 215.7 81 184.8 81C154 81 123 81 92.2 81C61.3 81 30.7 81 15.3 81L0 81Z" fill="#d6585d"></path><path d="M0 62L15.3 59.5C30.7 57 61.3 52 92.2 49.3C123 46.7 154 46.3 184.8 46.5C215.7 46.7 246.3 47.3 277 48.7C307.7 50 338.3 52 369.2 51.7C400 51.3 431 48.7 461.8 49.5C492.7 50.3 523.3 54.7 554 54.3C584.7 54 615.3 49 646 48.2C676.7 47.3 707.3 50.7 738.2 54C769 57.3 800 60.7 830.8 61.8C861.7 63 892.3 62 923 62C953.7 62 984.3 63 1015.2 60.5C1046 58 1077 52 1107.8 49.3C1138.7 46.7 1169.3 47.3 1184.7 47.7L1200 48L1200 81L1184.7 81C1169.3 81 1138.7 81 1107.8 81C1077 81 1046 81 1015.2 81C984.3 81 953.7 81 923 81C892.3 81 861.7 81 830.8 81C800 81 769 81 738.2 81C707.3 81 676.7 81 646 81C615.3 81 584.7 81 554 81C523.3 81 492.7 81 461.8 81C431 81 400 81 369.2 81C338.3 81 307.7 81 277 81C246.3 81 215.7 81 184.8 81C154 81 123 81 92.2 81C61.3 81 30.7 81 15.3 81L0 81Z" fill="#c03f58"></path><path d="M0 57L15.3 58.5C30.7 60 61.3 63 92.2 65.3C123 67.7 154 69.3 184.8 69.5C215.7 69.7 246.3 68.3 277 68.5C307.7 68.7 338.3 70.3 369.2 68.8C400 67.3 431 62.7 461.8 60.2C492.7 57.7 523.3 57.3 554 57.8C584.7 58.3 615.3 59.7 646 62.7C676.7 65.7 707.3 70.3 738.2 70.5C769 70.7 800 66.3 830.8 65.3C861.7 64.3 892.3 66.7 923 68.7C953.7 70.7 984.3 72.3 1015.2 70.7C1046 69 1077 64 1107.8 64.2C1138.7 64.3 1169.3 69.7 1184.7 72.3L1200 75L1200 81L1184.7 81C1169.3 81 1138.7 81 1107.8 81C1077 81 1046 81 1015.2 81C984.3 81 953.7 81 923 81C892.3 81 861.7 81 830.8 81C800 81 769 81 738.2 81C707.3 81 676.7 81 646 81C615.3 81 584.7 81 554 81C523.3 81 492.7 81 461.8 81C431 81 400 81 369.2 81C338.3 81 307.7 81 277 81C246.3 81 215.7 81 184.8 81C154 81 123 81 92.2 81C61.3 81 30.7 81 15.3 81L0 81Z" fill="#a82654"></path></svg>