<svg id="visual" viewBox="0 0 900 600" width="900" height="600" xmlns="http://www.w3.org/2000/svg" xmlns:xlink="http://www.w3.org/1999/xlink" version="1.1"><path d="M0 485L18.8 486.5C37.7 488 75.3 491 112.8 493.8C150.3 496.7 187.7 499.3 225.2 494.2C262.7 489 300.3 476 337.8 476.2C375.3 476.3 412.7 489.7 450.2 497.3C487.7 505 525.3 507 562.8 501C600.3 495 637.7 481 675.2 479.5C712.7 478 750.3 489 787.8 489.5C825.3 490 862.7 480 881.3 475L900 470L900 601L881.3 601C862.7 601 825.3 601 787.8 601C750.3 601 712.7 601 675.2 601C637.7 601 600.3 601 562.8 601C525.3 601 487.7 601 450.2 601C412.7 601 375.3 601 337.8 601C300.3 601 262.7 601 225.2 601C187.7 601 150.3 601 112.8 601C75.3 601 37.7 601 18.8 601L0 601Z" fill="#fd8c69"></path><path d="M0 485L18.8 492.3C37.7 499.7 75.3 514.3 112.8 522.7C150.3 531 187.7 533 225.2 527.5C262.7 522 300.3 509 337.8 507.3C375.3 505.7 412.7 515.3 450.2 515.2C487.7 515 525.3 505 562.8 499C600.3 493 637.7 491 675.2 493.2C712.7 495.3 750.3 501.7 787.8 502.7C825.3 503.7 862.7 499.3 881.3 497.2L900 495L900 601L881.3 601C862.7 601 825.3 601 787.8 601C750.3 601 712.7 601 675.2 601C637.7 601 600.3 601 562.8 601C525.3 601 487.7 601 450.2 601C412.7 601 375.3 601 337.8 601C300.3 601 262.7 601 225.2 601C187.7 601 150.3 601 112.8 601C75.3 601 37.7 601 18.8 601L0 601Z" fill="#e46960"></path><path d="M0 544L18.8 545C37.7 546 75.3 548 112.8 543C150.3 538 187.7 526 225.2 526.3C262.7 526.7 300.3 539.3 337.8 542.8C375.3 546.3 412.7 540.7 450.2 541.2C487.7 541.7 525.3 548.3 562.8 548.3C600.3 548.3 637.7 541.7 675.2 541.8C712.7 542 750.3 549 787.8 549.3C825.3 549.7 862.7 543.3 881.3 540.2L900 537L900 601L881.3 601C862.7 601 825.3 601 787.8 601C750.3 601 712.7 601 675.2 601C637.7 601 600.3 601 562.8 601C525.3 601 487.7 601 450.2 601C412.7 601 375.3 601 337.8 601C300.3 601 262.7 601 225.2 601C187.7 601 150.3 601 112.8 601C75.3 601 37.7 601 18.8 601L0 601Z" fill="#c7475a"></path><path d="M0 557L18.8 559.2C37.7 561.3 75.3 565.7 112.8 563.7C150.3 561.7 187.7 553.3 225.2 552.5C262.7 551.7 300.3 558.3 337.8 560C375.3 561.7 412.7 558.3 450.2 556.7C487.7 555 525.3 555 562.8 557.3C600.3 559.7 637.7 564.3 675.2 563.2C712.7 562 750.3 555 787.8 553.8C825.3 552.7 862.7 557.3 881.3 559.7L900 562L900 601L881.3 601C862.7 601 825.3 601 787.8 601C750.3 601 712.7 601 675.2 601C637.7 601 600.3 601 562.8 601C525.3 601 487.7 601 450.2 601C412.7 601 375.3 601 337.8 601C300.3 601 262.7 601 225.2 601C187.7 601 150.3 601 112.8 601C75.3 601 37.7 601 18.8 601L0 601Z" fill="#a82654"></path></svg>